<svg xmlns="http://www.w3.org/2000/svg" xmlns:xlink="http://www.w3.org/1999/xlink" width="218.304" height="41.162" viewBox="0 0 218.304 41.162"><defs><clipPath id="a"><rect width="218.304" height="41.162" fill="none"/></clipPath></defs><g clip-path="url(#a)"><path d="M3,3.14,12.419,0l9.419,3.14-9.419,3.14Z" transform="translate(18.453 17.441)" fill="#007bff"/><path d="M51.453,36.017V17.151l-20.581-6.86-20.581,6.86V36.017L0,41.162V10.291L30.871,0,61.743,10.291V41.162Z" fill="#007bff"/><path d="M15.436,5.145,30.871,0V15.436L15.436,20.581ZM0,15.436V0L15.436,5.145V20.581Z" transform="translate(15.436 20.581)" fill="#007bff"/><path d="M3-32.548H7.1a13.5,13.5,0,0,1,4.8.615,4.884,4.884,0,0,1,2.321,1.99,6.145,6.145,0,0,1,.85,3.3,5.533,5.533,0,0,1-1.112,3.537,5.771,5.771,0,0,1-3.019,1.962,17.357,17.357,0,0,1-4.076.318v8.609H3ZM6.869-24.6H8.1a6.644,6.644,0,0,0,2.017-.208,1.794,1.794,0,0,0,.891-.686,2.012,2.012,0,0,0,.325-1.158,1.851,1.851,0,0,0-.912-1.719,5.2,5.2,0,0,0-2.46-.4H6.869Zm21.45-2.653h3.772v15.034H28.319v-1.589A7.4,7.4,0,0,1,26.1-12.3a6.2,6.2,0,0,1-2.408.463,6.691,6.691,0,0,1-5.038-2.259,7.881,7.881,0,0,1-2.125-5.617,8.076,8.076,0,0,1,2.056-5.707,6.552,6.552,0,0,1,5-2.225,6.35,6.35,0,0,1,2.539.511A6.93,6.93,0,0,1,28.319-25.6Zm-3.966,3.1a3.811,3.811,0,0,0-2.906,1.237,4.457,4.457,0,0,0-1.157,3.171,4.5,4.5,0,0,0,1.177,3.206,3.815,3.815,0,0,0,2.9,1.257,3.886,3.886,0,0,0,2.947-1.237,4.52,4.52,0,0,0,1.171-3.24,4.391,4.391,0,0,0-1.171-3.178A3.935,3.935,0,0,0,24.354-24.16Zm9.157-3.5h3.855l3.905,9.433,4.309-9.433h3.866L40.031-7.124h-3.9l3.091-6.621Zm18.583,0h3.772v1.727a6.439,6.439,0,0,1,2.15-1.589,6.282,6.282,0,0,1,2.579-.525,4.793,4.793,0,0,1,2.544.691,4.993,4.993,0,0,1,1.825,2.017,6.092,6.092,0,0,1,2.206-2.017,6.015,6.015,0,0,1,2.855-.691,5.287,5.287,0,0,1,2.821.746A4.311,4.311,0,0,1,74.6-25.35a10.409,10.409,0,0,1,.532,3.91v8.816h-3.8v-7.627a6.524,6.524,0,0,0-.636-3.461,2.176,2.176,0,0,0-1.907-.905,2.893,2.893,0,0,0-1.734.553,3.267,3.267,0,0,0-1.14,1.527,9.49,9.49,0,0,0-.373,3.13v6.785h-3.8v-7.282a10.251,10.251,0,0,0-.3-2.922,2.643,2.643,0,0,0-.893-1.347,2.349,2.349,0,0,0-1.441-.442,2.838,2.838,0,0,0-1.71.56,3.338,3.338,0,0,0-1.15,1.568,9.7,9.7,0,0,0-.381,3.178v6.688H52.094Zm37.466-.4h3.772v15.034H89.56v-1.589A7.4,7.4,0,0,1,87.345-13.1a6.2,6.2,0,0,1-2.408.463A6.691,6.691,0,0,1,79.9-14.9a7.881,7.881,0,0,1-2.125-5.617,8.076,8.076,0,0,1,2.056-5.707,6.552,6.552,0,0,1,5-2.225,6.35,6.35,0,0,1,2.539.511A6.929,6.929,0,0,1,89.56-26.4Zm-3.965,3.1a3.811,3.811,0,0,0-2.906,1.237,4.457,4.457,0,0,0-1.157,3.171,4.5,4.5,0,0,0,1.177,3.206,3.815,3.815,0,0,0,2.9,1.257,3.886,3.886,0,0,0,2.947-1.237,4.521,4.521,0,0,0,1.171-3.24,4.391,4.391,0,0,0-1.171-3.178A3.935,3.935,0,0,0,85.594-24.964Zm11.861-8.642h3.772v5.541h2.238v3.247h-2.238v11.787H97.455V-24.819H95.521v-3.247h1.935Zm7.858,5.547h3.233v1.893a4.04,4.04,0,0,1,1.4-1.7,3.367,3.367,0,0,1,1.907-.58,3.528,3.528,0,0,1,1.534.387l-1.175,3.247a2.594,2.594,0,0,0-1.092-.332,1.728,1.728,0,0,0-1.472,1.078,9.862,9.862,0,0,0-.6,4.228l.014.732v6.08h-3.745Zm12.007-6.19a2.307,2.307,0,0,1,1.7.719,2.386,2.386,0,0,1,.71,1.741,2.359,2.359,0,0,1-.7,1.72,2.279,2.279,0,0,1-1.681.712,2.312,2.312,0,0,1-1.715-.725,2.426,2.426,0,0,1-.71-1.762,2.32,2.32,0,0,1,.7-1.7A2.306,2.306,0,0,1,117.32-34.25Zm-1.886,6.19h3.772v15.034h-3.772Zm6.319,0h4.38l2.971,4.1,2.956-4.1h4.307l-5.1,7.075,5.772,7.959h-4.38l-3.576-4.931-3.558,4.931h-4.308l5.706-7.909Z" transform="translate(66.461 48.239)" fill="#007bff"/><path d="M2.185-18.617H.112V-19.6H5.419v.983H3.346v5.271H2.185Zm9.855,5.271-.009-4.146L9.976-14.061H9.458L7.4-17.438v4.092H6.295V-19.6h.956l2.484,4.146L12.174-19.6h.956l.009,6.254Z" transform="translate(205.165 34.087)" fill="#007bff"/></g></svg>