<?xml version="1.0" standalone="no"?>
<!DOCTYPE svg PUBLIC "-//W3C//DTD SVG 20010904//EN"
 "http://www.w3.org/TR/2001/REC-SVG-20010904/DTD/svg10.dtd">
<svg version="1.0" xmlns="http://www.w3.org/2000/svg"
 width="516.000000pt" height="161.000000pt" viewBox="0 0 516.000000 161.000000"
 preserveAspectRatio="xMidYMid meet">

<g transform="translate(0.000000,161.000000) scale(0.100000,-0.100000)"
fill="#000000" stroke="none">
<path d="M3377 1249 c-37 -22 -47 -70 -47 -232 0 -85 5 -168 11 -185 22 -63
95 -81 148 -36 l31 26 0 193 0 193 -31 26 c-32 28 -80 34 -112 15z"/>
<path d="M450 1108 c-19 -13 -45 -45 -59 -73 -26 -50 -26 -51 -26 -300 0 -294
9 -344 76 -407 39 -37 116 -68 169 -68 76 0 151 41 207 113 l22 29 44 -36 c78
-64 148 -89 262 -94 124 -5 204 13 282 65 102 68 186 203 218 351 23 109 23
109 41 84 8 -12 59 -53 112 -91 115 -82 141 -108 151 -153 24 -108 -69 -170
-199 -133 -99 28 -133 30 -154 6 -30 -34 -12 -70 49 -101 45 -22 62 -25 175
-25 115 0 129 2 170 25 28 16 55 43 75 74 26 43 30 59 30 120 -1 53 -6 81 -22
112 -32 60 -127 143 -259 226 -143 90 -167 116 -162 174 4 53 -12 43 -48 -29
-23 -45 -34 -83 -79 -277 -10 -41 -30 -100 -45 -131 -80 -158 -280 -230 -432
-156 -106 52 -158 147 -158 287 0 180 93 291 258 309 l67 7 -60 7 c-111 14
-238 -27 -309 -98 -41 -40 -92 -138 -102 -194 -4 -19 -1 -71 6 -117 11 -80 11
-85 -10 -119 -44 -71 -133 -105 -186 -71 -49 33 -54 64 -54 336 l0 250 108 0
c120 0 142 10 142 63 0 46 -31 57 -156 57 -99 0 -115 -3 -144 -22z"/>
<path d="M2561 1094 c-12 -15 -21 -34 -21 -44 0 -33 39 -70 74 -70 49 0 76 24
76 69 0 47 -24 71 -73 71 -27 0 -41 -7 -56 -26z"/>
<path d="M4160 695 l0 -425 76 0 77 0 -7 338 -7 337 58 -115 c33 -63 119 -215
191 -337 l133 -223 79 0 80 0 0 425 0 425 -70 0 -70 0 1 -207 c0 -115 4 -260
8 -323 4 -63 6 -116 5 -118 -1 -2 -26 46 -55 106 -30 59 -112 206 -184 325
l-130 217 -92 0 -93 0 0 -425z"/>
<path d="M2040 1041 c0 -46 2 -52 15 -41 19 16 19 51 0 76 -13 17 -14 15 -15
-35z"/>
<path d="M1390 1015 c0 -69 3 -71 43 -37 31 27 19 68 -30 96 -10 5 -13 -9 -13
-59z"/>
<path d="M3715 962 c85 -53 109 -125 103 -302 -4 -140 -24 -186 -102 -235
l-49 -30 -219 -3 c-240 -4 -287 4 -341 53 -53 50 -61 79 -65 226 -5 163 5 209
58 261 47 47 33 48 -58 3 -85 -43 -140 -101 -171 -181 -30 -80 -35 -123 -22
-200 29 -164 115 -245 297 -279 105 -21 477 -20 573 0 134 28 220 88 264 184
18 38 22 65 22 151 0 99 -2 109 -33 172 -18 36 -49 81 -69 99 -39 33 -137 82
-188 93 l-30 7 30 -19z"/>
<path d="M2540 570 l0 -310 75 0 75 0 0 310 0 310 -75 0 -75 0 0 -310z"/>
</g>
</svg>
